<?xml version="1.0" encoding="UTF-8"?>
<svg xmlns="http://www.w3.org/2000/svg" xmlns:xlink="http://www.w3.org/1999/xlink" viewBox="0 0 774 101.08">
  <defs>
    <style>
      .cls-1 {
        fill: none;
      }

      .cls-2 {
        filter: url(#drop-shadow-1);
      }

      .cls-3 {
        fill: #22363f;
      }

      .cls-4 {
        fill: url(#linear-gradient-8);
      }

      .cls-5 {
        fill: url(#linear-gradient-7);
      }

      .cls-6 {
        fill: url(#linear-gradient-5);
      }

      .cls-7 {
        fill: url(#linear-gradient-6);
      }

      .cls-8 {
        fill: url(#linear-gradient-9);
      }

      .cls-9 {
        fill: url(#linear-gradient-4);
      }

      .cls-10 {
        fill: url(#linear-gradient-3);
      }

      .cls-11 {
        fill: url(#linear-gradient-2);
      }

      .cls-12 {
        fill: url(#linear-gradient);
      }

      .cls-13 {
        fill: #0f181e;
      }

      .cls-14 {
        isolation: isolate;
      }

      .cls-15 {
        clip-path: url(#clippath-1);
      }

      .cls-16 {
        fill: url(#linear-gradient-40);
      }

      .cls-17 {
        fill: url(#linear-gradient-10);
      }

      .cls-18 {
        fill: url(#linear-gradient-11);
      }

      .cls-19 {
        fill: url(#linear-gradient-12);
      }

      .cls-20 {
        fill: url(#linear-gradient-13);
      }

      .cls-21 {
        fill: url(#linear-gradient-19);
      }

      .cls-22 {
        fill: url(#linear-gradient-14);
      }

      .cls-23 {
        fill: url(#linear-gradient-21);
      }

      .cls-24 {
        fill: url(#linear-gradient-20);
      }

      .cls-25 {
        fill: url(#linear-gradient-22);
      }

      .cls-26 {
        fill: url(#linear-gradient-23);
      }

      .cls-27 {
        fill: url(#linear-gradient-28);
      }

      .cls-28 {
        fill: url(#linear-gradient-25);
      }

      .cls-29 {
        fill: url(#linear-gradient-32);
      }

      .cls-30 {
        fill: url(#linear-gradient-31);
      }

      .cls-31 {
        fill: url(#linear-gradient-33);
      }

      .cls-32 {
        fill: url(#linear-gradient-30);
      }

      .cls-33 {
        fill: url(#linear-gradient-15);
      }

      .cls-34 {
        fill: url(#linear-gradient-16);
      }

      .cls-35 {
        fill: url(#linear-gradient-17);
      }

      .cls-36 {
        fill: url(#linear-gradient-18);
      }

      .cls-37 {
        fill: url(#linear-gradient-35);
      }

      .cls-38 {
        fill: url(#linear-gradient-34);
      }

      .cls-39 {
        fill: url(#linear-gradient-36);
      }

      .cls-40 {
        fill: url(#linear-gradient-38);
      }

      .cls-41 {
        fill: url(#linear-gradient-27);
      }

      .cls-42 {
        fill: url(#linear-gradient-24);
      }

      .cls-43 {
        fill: url(#linear-gradient-26);
      }

      .cls-44 {
        fill: url(#linear-gradient-29);
      }

      .cls-45 {
        fill: url(#linear-gradient-37);
      }

      .cls-46 {
        fill: url(#linear-gradient-39);
      }

      .cls-47 {
        fill: url(#radial-gradient-2);
      }

      .cls-47, .cls-48, .cls-49 {
        mix-blend-mode: color-dodge;
        opacity: .58;
      }

      .cls-48 {
        fill: url(#radial-gradient-3);
      }

      .cls-49 {
        fill: url(#radial-gradient);
      }

      .cls-50 {
        clip-path: url(#clippath);
      }
    </style>
    <clipPath id="clippath">
      <polygon class="cls-1" points="4.85 7.03 3.28 25.65 2.36 36.66 766.34 99.2 767.27 88.18 768.83 69.56 4.85 7.03"/>
    </clipPath>
    <linearGradient id="linear-gradient" x1="152.49" y1="347.37" x2="183.57" y2="347.37" gradientTransform="translate(-118.87 -292.26) rotate(4.82) scale(1.01 .87)" gradientUnits="userSpaceOnUse">
      <stop offset="0" stop-color="#fff"/>
      <stop offset="0" stop-color="#e79b26"/>
      <stop offset="1" stop-color="#f1cc31"/>
    </linearGradient>
    <linearGradient id="linear-gradient-2" x1="190.65" y1="347.37" x2="221.73" y2="347.37" xlink:href="#linear-gradient"/>
    <linearGradient id="linear-gradient-3" x1="228.81" y1="347.37" x2="259.88" y2="347.37" xlink:href="#linear-gradient"/>
    <linearGradient id="linear-gradient-4" x1="266.97" y1="347.37" x2="298.04" y2="347.37" xlink:href="#linear-gradient"/>
    <linearGradient id="linear-gradient-5" x1="305.12" y1="347.37" x2="336.2" y2="347.37" xlink:href="#linear-gradient"/>
    <linearGradient id="linear-gradient-6" x1="343.28" y1="347.37" x2="374.36" y2="347.37" xlink:href="#linear-gradient"/>
    <linearGradient id="linear-gradient-7" x1="381.44" y1="347.37" x2="412.51" y2="347.37" xlink:href="#linear-gradient"/>
    <linearGradient id="linear-gradient-8" x1="419.59" y1="347.37" x2="450.67" y2="347.37" xlink:href="#linear-gradient"/>
    <linearGradient id="linear-gradient-9" x1="457.75" y1="347.37" x2="488.83" y2="347.37" xlink:href="#linear-gradient"/>
    <linearGradient id="linear-gradient-10" x1="495.91" y1="347.37" x2="526.99" y2="347.37" xlink:href="#linear-gradient"/>
    <linearGradient id="linear-gradient-11" x1="534.07" y1="347.37" x2="565.14" y2="347.37" xlink:href="#linear-gradient"/>
    <linearGradient id="linear-gradient-12" x1="572.33" y1="344.67" x2="603.41" y2="344.67" xlink:href="#linear-gradient"/>
    <linearGradient id="linear-gradient-13" x1="610.49" y1="344.67" x2="641.57" y2="344.67" xlink:href="#linear-gradient"/>
    <linearGradient id="linear-gradient-14" x1="648.65" y1="344.67" x2="679.72" y2="344.67" xlink:href="#linear-gradient"/>
    <linearGradient id="linear-gradient-15" x1="686.81" y1="344.67" x2="717.88" y2="344.67" xlink:href="#linear-gradient"/>
    <linearGradient id="linear-gradient-16" x1="724.96" y1="344.67" x2="756.04" y2="344.67" xlink:href="#linear-gradient"/>
    <linearGradient id="linear-gradient-17" x1="763.12" y1="344.67" x2="794.2" y2="344.67" xlink:href="#linear-gradient"/>
    <linearGradient id="linear-gradient-18" x1="801.28" y1="344.67" x2="832.35" y2="344.67" xlink:href="#linear-gradient"/>
    <linearGradient id="linear-gradient-19" x1="839.43" y1="344.67" x2="870.51" y2="344.67" xlink:href="#linear-gradient"/>
    <linearGradient id="linear-gradient-20" x1="877.59" y1="344.67" x2="908.67" y2="344.67" xlink:href="#linear-gradient"/>
    <filter id="drop-shadow-1" x="0" y="0" width="776.64" height="101.08" filterUnits="userSpaceOnUse">
      <feOffset dx="5" dy="5"/>
      <feGaussianBlur result="blur" stdDeviation="0"/>
      <feFlood flood-color="#23424c" flood-opacity=".15"/>
      <feComposite in2="blur" operator="in"/>
      <feComposite in="SourceGraphic"/>
    </filter>
    <clipPath id="clippath-1">
      <polygon class="cls-1" points="769.15 2.03 770.71 20.65 771.64 31.66 7.66 94.2 6.73 83.18 5.16 64.56 769.15 2.03"/>
    </clipPath>
    <linearGradient id="linear-gradient-21" x1="-578.21" y1="413.2" x2="-547.14" y2="413.2" gradientTransform="translate(150.98 -292.26) rotate(175.18) scale(1.01 -.87)" xlink:href="#linear-gradient"/>
    <linearGradient id="linear-gradient-22" x1="-540.06" y1="413.2" x2="-508.98" y2="413.2" gradientTransform="translate(150.98 -292.26) rotate(175.18) scale(1.01 -.87)" xlink:href="#linear-gradient"/>
    <linearGradient id="linear-gradient-23" x1="-501.9" y1="413.2" x2="-470.82" y2="413.2" gradientTransform="translate(150.98 -292.26) rotate(175.18) scale(1.01 -.87)" xlink:href="#linear-gradient"/>
    <linearGradient id="linear-gradient-24" x1="-463.74" y1="413.2" x2="-432.67" y2="413.2" gradientTransform="translate(150.98 -292.26) rotate(175.18) scale(1.01 -.87)" xlink:href="#linear-gradient"/>
    <linearGradient id="linear-gradient-25" x1="-425.59" y1="413.2" x2="-394.51" y2="413.2" gradientTransform="translate(150.98 -292.26) rotate(175.18) scale(1.01 -.87)" xlink:href="#linear-gradient"/>
    <linearGradient id="linear-gradient-26" x1="-387.43" y1="413.2" x2="-356.35" y2="413.2" gradientTransform="translate(150.98 -292.26) rotate(175.18) scale(1.01 -.87)" xlink:href="#linear-gradient"/>
    <linearGradient id="linear-gradient-27" x1="-349.27" y1="413.2" x2="-318.19" y2="413.2" gradientTransform="translate(150.98 -292.26) rotate(175.18) scale(1.01 -.87)" xlink:href="#linear-gradient"/>
    <linearGradient id="linear-gradient-28" x1="-311.11" y1="413.2" x2="-280.04" y2="413.2" gradientTransform="translate(150.98 -292.26) rotate(175.18) scale(1.01 -.87)" xlink:href="#linear-gradient"/>
    <linearGradient id="linear-gradient-29" x1="-272.96" y1="413.2" x2="-241.88" y2="413.2" gradientTransform="translate(150.98 -292.26) rotate(175.18) scale(1.01 -.87)" xlink:href="#linear-gradient"/>
    <linearGradient id="linear-gradient-30" x1="-234.8" y1="413.2" x2="-203.72" y2="413.2" gradientTransform="translate(150.98 -292.26) rotate(175.18) scale(1.01 -.87)" xlink:href="#linear-gradient"/>
    <linearGradient id="linear-gradient-31" x1="-196.64" y1="413.2" x2="-165.56" y2="413.2" gradientTransform="translate(150.98 -292.26) rotate(175.18) scale(1.01 -.87)" xlink:href="#linear-gradient"/>
    <linearGradient id="linear-gradient-32" x1="-158.38" y1="410.49" x2="-127.3" y2="410.49" gradientTransform="translate(150.98 -292.26) rotate(175.18) scale(1.01 -.87)" xlink:href="#linear-gradient"/>
    <linearGradient id="linear-gradient-33" x1="-120.22" y1="410.49" x2="-89.14" y2="410.49" gradientTransform="translate(150.98 -292.26) rotate(175.18) scale(1.01 -.87)" xlink:href="#linear-gradient"/>
    <linearGradient id="linear-gradient-34" x1="-82.06" y1="410.49" x2="-50.98" y2="410.49" gradientTransform="translate(150.98 -292.26) rotate(175.18) scale(1.01 -.87)" xlink:href="#linear-gradient"/>
    <linearGradient id="linear-gradient-35" x1="-43.9" y1="410.49" x2="-12.83" y2="410.49" gradientTransform="translate(150.98 -292.26) rotate(175.18) scale(1.01 -.87)" xlink:href="#linear-gradient"/>
    <linearGradient id="linear-gradient-36" x1="-5.75" y1="410.49" x2="25.33" y2="410.49" gradientTransform="translate(150.98 -292.26) rotate(175.18) scale(1.01 -.87)" xlink:href="#linear-gradient"/>
    <linearGradient id="linear-gradient-37" x1="32.41" y1="410.49" x2="63.49" y2="410.49" gradientTransform="translate(150.98 -292.26) rotate(175.18) scale(1.01 -.87)" xlink:href="#linear-gradient"/>
    <linearGradient id="linear-gradient-38" x1="70.57" y1="410.49" x2="101.65" y2="410.49" gradientTransform="translate(150.98 -292.26) rotate(175.18) scale(1.01 -.87)" xlink:href="#linear-gradient"/>
    <linearGradient id="linear-gradient-39" x1="108.73" y1="410.49" x2="139.8" y2="410.49" gradientTransform="translate(150.98 -292.26) rotate(175.18) scale(1.01 -.87)" xlink:href="#linear-gradient"/>
    <linearGradient id="linear-gradient-40" x1="146.88" y1="410.49" x2="177.96" y2="410.49" gradientTransform="translate(150.98 -292.26) rotate(175.18) scale(1.01 -.87)" xlink:href="#linear-gradient"/>
    <radialGradient id="radial-gradient" cx="87.85" cy="1297.51" fx="87.85" fy="1297.51" r="62.42" gradientTransform="translate(673.31 -232.91) rotate(-5.2) scale(1.52 .2) skewX(-5.43)" gradientUnits="userSpaceOnUse">
      <stop offset="0" stop-color="#fff"/>
      <stop offset=".15" stop-color="#fcf5d4" stop-opacity=".77"/>
      <stop offset=".32" stop-color="#f9eca9" stop-opacity=".54"/>
      <stop offset=".48" stop-color="#f7e486" stop-opacity=".35"/>
      <stop offset=".64" stop-color="#f6de6a" stop-opacity=".2"/>
      <stop offset=".78" stop-color="#f4da56" stop-opacity=".09"/>
      <stop offset=".91" stop-color="#f4d74a" stop-opacity=".02"/>
      <stop offset="1" stop-color="#f4d746" stop-opacity="0"/>
    </radialGradient>
    <radialGradient id="radial-gradient-2" cx="-2.81" cy="1197.2" fx="-2.81" fy="1197.2" r="62.41" gradientTransform="translate(736.3 -145.83) rotate(6.54) scale(1.52 .2) skewX(-5.43)" xlink:href="#radial-gradient"/>
    <radialGradient id="radial-gradient-3" cx="-238.66" cy="985.63" fx="-238.66" fy="985.63" r="62.42" gradientTransform="translate(682.2 -109.74) rotate(5.44) scale(1.52 .2) skewX(-5.43)" xlink:href="#radial-gradient"/>
  </defs>
  <g class="cls-14">
    <g id="OBJECTS">
      <g>
        <g class="cls-50">
          <polygon class="cls-3" points="768.83 69.56 4.85 7.03 3.28 25.65 767.27 88.18 768.83 69.56"/>
          <polygon class="cls-13" points="3.28 25.65 2.36 36.66 766.34 99.2 767.27 88.18 3.28 25.65"/>
          <g>
            <g>
              <polygon class="cls-12" points="28.18 41.8 8.01 40.1 22.22 5 42.39 6.7 28.18 41.8"/>
              <polygon class="cls-11" points="66.67 45.04 46.49 43.34 60.71 8.24 80.88 9.94 66.67 45.04"/>
              <polygon class="cls-10" points="105.16 48.28 84.98 46.58 99.2 11.49 119.37 13.19 105.16 48.28"/>
              <polygon class="cls-9" points="143.65 51.53 123.47 49.83 137.68 14.73 157.86 16.43 143.65 51.53"/>
              <polygon class="cls-6" points="182.14 54.77 161.96 53.07 176.17 17.97 196.35 19.67 182.14 54.77"/>
              <polygon class="cls-7" points="220.63 58.01 200.45 56.31 214.66 21.22 234.84 22.92 220.63 58.01"/>
              <polygon class="cls-5" points="259.12 61.26 238.94 59.56 253.15 24.46 273.33 26.16 259.12 61.26"/>
              <polygon class="cls-4" points="297.61 64.5 277.43 62.8 291.64 27.7 311.82 29.4 297.61 64.5"/>
              <polygon class="cls-8" points="336.1 67.74 315.92 66.04 330.13 30.95 350.31 32.65 336.1 67.74"/>
              <polygon class="cls-17" points="374.59 70.99 354.41 69.29 368.62 34.19 388.8 35.89 374.59 70.99"/>
              <polygon class="cls-18" points="413.08 74.23 392.9 72.53 407.11 37.43 427.29 39.13 413.08 74.23"/>
            </g>
            <g>
              <polygon class="cls-19" points="451.87 75.14 431.7 73.44 445.91 38.34 466.08 40.04 451.87 75.14"/>
              <polygon class="cls-20" points="490.36 78.38 470.19 76.68 484.4 41.58 504.57 43.28 490.36 78.38"/>
              <polygon class="cls-22" points="528.85 81.62 508.67 79.92 522.89 44.83 543.06 46.53 528.85 81.62"/>
              <polygon class="cls-33" points="567.34 84.87 547.16 83.17 561.38 48.07 581.55 49.77 567.34 84.87"/>
              <polygon class="cls-34" points="605.83 88.11 585.65 86.41 599.86 51.31 620.04 53.01 605.83 88.11"/>
              <polygon class="cls-35" points="644.32 91.35 624.14 89.65 638.35 54.56 658.53 56.26 644.32 91.35"/>
              <polygon class="cls-36" points="682.81 94.6 662.63 92.9 676.84 57.8 697.02 59.5 682.81 94.6"/>
              <polygon class="cls-21" points="721.3 97.84 701.12 96.14 715.33 61.04 735.51 62.74 721.3 97.84"/>
              <polygon class="cls-24" points="759.79 101.08 739.61 99.38 753.82 64.29 774 65.99 759.79 101.08"/>
            </g>
          </g>
          <polygon class="cls-1" points="4.85 7.03 3.28 25.65 2.36 36.66 766.34 99.2 767.27 88.18 768.83 69.56 4.85 7.03"/>
        </g>
        <g class="cls-2">
          <g class="cls-15">
            <polygon class="cls-3" points="5.16 64.56 769.15 2.03 770.71 20.65 6.73 83.18 5.16 64.56"/>
            <polygon class="cls-13" points="770.71 20.65 771.64 31.66 7.66 94.2 6.73 83.18 770.71 20.65"/>
            <g>
              <g>
                <polygon class="cls-23" points="745.82 36.8 765.99 35.1 751.78 0 731.61 1.7 745.82 36.8"/>
                <polygon class="cls-25" points="707.33 40.04 727.5 38.34 713.29 3.24 693.12 4.94 707.33 40.04"/>
                <polygon class="cls-26" points="668.84 43.28 689.01 41.58 674.8 6.49 654.63 8.19 668.84 43.28"/>
                <polygon class="cls-42" points="630.35 46.53 650.52 44.83 636.31 9.73 616.14 11.43 630.35 46.53"/>
                <polygon class="cls-28" points="591.86 49.77 612.03 48.07 597.82 12.97 577.65 14.67 591.86 49.77"/>
                <polygon class="cls-43" points="553.37 53.01 573.55 51.31 559.33 16.22 539.16 17.92 553.37 53.01"/>
                <polygon class="cls-41" points="514.88 56.26 535.06 54.56 520.84 19.46 500.67 21.16 514.88 56.26"/>
                <polygon class="cls-27" points="476.39 59.5 496.57 57.8 482.36 22.7 462.18 24.4 476.39 59.5"/>
                <polygon class="cls-44" points="437.9 62.74 458.08 61.04 443.87 25.95 423.69 27.65 437.9 62.74"/>
                <polygon class="cls-32" points="399.41 65.99 419.59 64.29 405.38 29.19 385.2 30.89 399.41 65.99"/>
                <polygon class="cls-30" points="360.92 69.23 381.1 67.53 366.89 32.43 346.71 34.13 360.92 69.23"/>
              </g>
              <g>
                <polygon class="cls-29" points="322.13 70.14 342.3 68.44 328.09 33.34 307.91 35.04 322.13 70.14"/>
                <polygon class="cls-31" points="283.64 73.38 303.81 71.68 289.6 36.58 269.43 38.28 283.64 73.38"/>
                <polygon class="cls-38" points="245.15 76.62 265.32 74.92 251.11 39.83 230.94 41.53 245.15 76.62"/>
                <polygon class="cls-37" points="206.66 79.87 226.83 78.17 212.62 43.07 192.45 44.77 206.66 79.87"/>
                <polygon class="cls-39" points="168.17 83.11 188.34 81.41 174.13 46.31 153.96 48.01 168.17 83.11"/>
                <polygon class="cls-45" points="129.68 86.35 149.86 84.65 135.64 49.56 115.47 51.26 129.68 86.35"/>
                <polygon class="cls-40" points="91.19 89.6 111.37 87.9 97.15 52.8 76.98 54.5 91.19 89.6"/>
                <polygon class="cls-46" points="52.7 92.84 72.88 91.14 58.67 56.04 38.49 57.74 52.7 92.84"/>
                <polygon class="cls-16" points="14.21 96.08 34.39 94.38 20.18 59.29 0 60.99 14.21 96.08"/>
              </g>
            </g>
            <polygon class="cls-1" points="769.15 2.03 770.71 20.65 771.64 31.66 7.66 94.2 6.73 83.18 5.16 64.56 769.15 2.03"/>
          </g>
        </g>
        <path class="cls-49" d="M741.57,16.33c.9,7.52-46.33,19.37-105.5,26.46-59.17,7.09-107.86,6.73-108.77-.79-.9-7.52,46.33-19.37,105.5-26.46,59.17-7.09,107.86-6.73,108.77.79Z"/>
        <path class="cls-47" d="M632.4,78.41c-.65,7.55-49.31,9.53-108.68,4.43-59.37-5.1-106.98-15.36-106.33-22.91.65-7.55,49.31-9.53,108.68-4.43,59.37,5.1,106.98,15.36,106.33,22.91Z"/>
        <path class="cls-48" d="M260.87,43.71c-.5,7.56-49.11,10.48-108.57,6.52-59.46-3.96-107.25-13.3-106.75-20.86.5-7.56,49.11-10.48,108.57-6.52,59.46,3.96,107.25,13.3,106.75,20.86Z"/>
      </g>
    </g>
  </g>
</svg>